<svg width="108" height="39" viewBox="0 0 108 39" fill="none" xmlns="http://www.w3.org/2000/svg">
<g clip-path="url(#clip0)">
<path d="M19.6718 38.9989C15.7808 38.9993 11.9771 37.8558 8.74173 35.7132C5.50633 33.5705 2.98458 30.5249 1.49539 26.9615C0.00620671 23.3981 -0.383528 19.477 0.375478 15.694C1.13448 11.911 3.00814 8.43613 5.75949 5.70877C8.51084 2.9814 12.0163 1.12408 15.8325 0.371695C19.6488 -0.380694 23.6044 0.00564304 27.1992 1.48185C30.7939 2.95805 33.8663 5.45782 36.0278 8.66501C38.1893 11.8722 39.3428 15.6428 39.3424 19.4998C39.3366 24.6695 37.2622 29.6258 33.5746 33.2813C29.8869 36.9369 24.887 38.9931 19.6718 38.9989ZM19.6718 1.92504C16.1653 1.92504 12.7375 2.95578 9.82194 4.88692C6.90636 6.81807 4.63394 9.56287 3.29205 12.7742C1.95016 15.9856 1.59906 19.5193 2.28315 22.9285C2.96724 26.3377 4.6558 29.4692 7.13529 31.9271C9.61479 34.385 12.7739 36.0588 16.213 36.7369C19.6522 37.415 23.217 37.067 26.4566 35.7368C29.6962 34.4066 32.4651 32.154 34.4133 29.2639C36.3614 26.3737 37.4012 22.9758 37.4012 19.4998C37.3958 14.8403 35.5262 10.3732 32.2025 7.07846C28.8787 3.7837 24.3723 1.93036 19.6718 1.92504Z" fill="url(#paint0_linear)"/>
<path d="M51.2988 27.0859V11.6494H61.0603V13.5463H53.6515V18.4192H59.7871V20.3033H53.6515V27.095L51.2988 27.0859Z" fill="white"/>
<path d="M67.906 27.3515C66.9132 27.3666 65.9341 27.1191 65.0699 26.6345C64.2329 26.1571 63.5441 25.4611 63.0788 24.6224C62.5727 23.6995 62.3183 22.6617 62.3407 21.6115C62.3145 20.5615 62.5692 19.5234 63.0788 18.6025C63.5527 17.7627 64.2488 17.0671 65.092 16.5904C65.9601 16.1204 66.9335 15.874 67.9226 15.874C68.9118 15.874 69.8852 16.1204 70.7533 16.5904C71.5919 17.0693 72.2839 17.7647 72.7554 18.6025C73.2659 19.523 73.5206 20.5614 73.4935 21.6115C73.5203 22.6622 73.2656 23.7011 72.7554 24.6224C72.2817 25.4623 71.5856 26.158 70.7422 26.6345C69.8768 27.1164 68.8986 27.3638 67.906 27.3515ZM67.906 25.3394C68.4576 25.3422 68.9996 25.1968 69.4745 24.9187C69.9747 24.6211 70.3797 24.1892 70.6426 23.673C70.9596 23.0326 71.1123 22.3245 71.0873 21.6115C71.1121 20.8998 70.9633 20.1926 70.6537 19.55C70.3971 19.033 69.9953 18.6004 69.4967 18.3044C69.0203 18.03 68.4791 17.8855 67.9282 17.8855C67.3772 17.8855 66.8361 18.03 66.3597 18.3044C65.8595 18.6019 65.4545 19.0338 65.1916 19.55C64.8746 20.1905 64.7219 20.8986 64.7469 21.6115C64.7219 22.3245 64.8746 23.0326 65.1916 23.673C65.4528 24.1869 65.8535 24.6184 66.3486 24.9187C66.8185 25.1996 67.3573 25.347 67.906 25.3449V25.3394Z" fill="white"/>
<path d="M80.258 27.0862C79.1767 27.0862 78.3155 26.8252 77.6746 26.3033C77.0337 25.7814 76.7151 24.8515 76.7188 23.5138V18.1086H74.8311V16.1477H76.7225L77.0103 13.3691H79.0789V16.1477H82.1937V18.1086H79.0789V23.512C79.0789 24.1138 79.2099 24.5308 79.4682 24.7576C79.7266 24.9844 80.1768 25.0997 80.8153 25.0997H82.083V27.0844L80.258 27.0862Z" fill="white"/>
<path d="M89.4958 27.3512C88.5023 27.3663 87.5227 27.1188 86.6577 26.6342C85.8212 26.1563 85.1326 25.4604 84.6667 24.6221C84.1606 23.6992 83.9062 22.6614 83.9286 21.6112C83.9024 20.5612 84.1571 19.5231 84.6667 18.6022C85.1413 17.7629 85.8372 17.0674 86.6799 16.5901C87.5486 16.1209 88.5221 15.875 89.5114 15.875C90.5008 15.875 91.4743 16.1209 92.343 16.5901C93.181 17.0698 93.8728 17.765 94.3451 18.6022C94.8548 19.5231 95.1094 20.5612 95.0832 21.6112C95.1091 22.6618 94.8545 23.7004 94.3451 24.6221C93.8706 25.4613 93.1747 26.1568 92.3319 26.6342C91.4665 27.1159 90.4883 27.3632 89.4958 27.3512ZM89.4958 25.3391C90.0468 25.342 90.5882 25.1966 91.0624 24.9184C91.563 24.6213 91.9681 24.1893 92.2305 23.6727C92.5475 23.0323 92.7002 22.3242 92.6752 21.6112C92.6999 20.8995 92.5512 20.1923 92.2415 19.5497C91.986 19.032 91.584 18.5991 91.0845 18.3041C90.7233 18.0903 90.3214 17.9528 89.9041 17.9C89.4867 17.8471 89.0629 17.8802 88.6591 17.9971C88.2552 18.114 87.88 18.3123 87.5569 18.5794C87.2339 18.8465 86.9698 19.1769 86.7814 19.5497C86.4644 20.1902 86.3116 20.8983 86.3367 21.6112C86.3116 22.3242 86.4644 23.0323 86.7814 23.6727C87.0413 24.1874 87.4423 24.6191 87.9384 24.9184C88.4082 25.1995 88.947 25.347 89.4958 25.3446V25.3391Z" fill="white"/>
<path d="M97.6553 27.0868V16.1482H99.746L99.9305 18.0671C100.261 17.3991 100.781 16.8415 101.427 16.4629C102.118 16.0673 102.906 15.8674 103.704 15.8848C105.04 15.8848 106.089 16.2964 106.852 17.1195C107.615 17.9427 107.997 19.1701 107.998 20.8017V27.0868H105.664V21.0505C105.664 18.9323 104.789 17.8738 103.04 17.875C102.632 17.8639 102.227 17.9409 101.852 18.1008C101.477 18.2606 101.142 18.4994 100.87 18.8006C100.299 19.4139 100.014 20.2944 100.014 21.4419V27.0868H97.6553Z" fill="white"/>
</g>
<defs>
<linearGradient id="paint0_linear" x1="19.6718" y1="-0.00109181" x2="19.6718" y2="38.9989" gradientUnits="userSpaceOnUse">
<stop stop-color="#EEEEEE"/>
<stop offset="0.49" stop-color="#898787"/>
<stop offset="1"/>
</linearGradient>
<clipPath id="clip0">
<rect width="108" height="39" fill="white"/>
</clipPath>
</defs>
</svg>
